<svg id="Isolation_Mode" data-name="Isolation Mode" xmlns="http://www.w3.org/2000/svg" viewBox="0 0 370 170"><defs><style>.cls-1{fill:#eee;}</style></defs><title>star-wars</title><path class="cls-1" d="M357.31,156.13h-1.49l-1.74,4.51-1.78-4.51h-1.51V162h1v-4.93h.06l1.93,4.93h.6l1.93-4.93h.06V162h1Zm-7.7,0h-4.69v.79h1.84V162h1v-5.12h1.88Z"/><path class="cls-1" d="M173.59,88.43a1,1,0,0,0-.83-.68h-40a1,1,0,0,0-.83.67s-22.09,72.92-22.09,73a.66.66,0,0,0,.66.67h26.41a.68.68,0,0,0,.42-.5l3.07-9.84a.69.69,0,0,1,.6-.42l24.37,0a.72.72,0,0,1,.6.45l3.14,9.83a.71.71,0,0,0,.43.51h26a.65.65,0,0,0,.66-.65c0-.12-22.63-73.06-22.63-73.06m-14.67,42.71H148c-.38,0-.66-.43-.66-.84,0-.16,5.79-18.82,5.79-18.82.2-.71.22-.72.31-.72h0c.08,0,.1,0,.3.72,0,0,5.79,18.66,5.79,18.82,0,.41-.29.84-.66.84"/><path class="cls-1" d="M326.71,111.86h36.77V87.75H316.2c-4.43,0-10.64,2.28-14.22,4.92s-8.73,8.67-8.73,17a26.58,26.58,0,0,0,5,14.77c2.58,3.2,9.1,9.88,9.1,9.88a.88.88,0,0,1,.24.6.9.9,0,0,1-.9.9H270.3c-4.43,0-4.74-1.79-4.74-2,0-.46.55-.74.55-.74a42.84,42.84,0,0,0,5-3.44,21.33,21.33,0,0,0,8.07-17.41,22.25,22.25,0,0,0-8-17.83,29.05,29.05,0,0,0-16.73-6.58h-52s0,73.93,0,73.94a.43.43,0,0,0,.45.43h28.93V141.4c0-.37.55,0,.55,0l15.07,15.13c5.35,5.42,14.22,5.6,14.22,5.6h57a23.36,23.36,0,0,0,17.05-39c-1.6-1.93-8-8.65-9.28-10a.7.7,0,0,1-.26-.54.73.73,0,0,1,.48-.72m-77.82,6.34H232.66a.63.63,0,0,1-.43-.61l0-8.19a.63.63,0,0,1,.43-.61h14.88c1.72,0,5.23.86,5.23,4.86a4.56,4.56,0,0,1-3.87,4.55"/><path class="cls-1" d="M96.67,162.13a.43.43,0,0,0,.39-.35s22.39-73.52,22.39-73.59a.42.42,0,0,0-.31-.43H91.55c-.14,0-.23.12-.27.26s-5.7,19.12-5.7,19.13-.11.26-.26.26a.31.31,0,0,1-.27-.26L79.08,88a.28.28,0,0,0-.26-.24H48.34a.27.27,0,0,0-.19.18l-5.37,19.21c0,.15-.12.26-.27.26a.26.26,0,0,1-.25-.22L36.59,88a.28.28,0,0,0-.22-.24H6.95a.43.43,0,0,0-.43.43s0,.12,0,.12l22.73,73.47a.41.41,0,0,0,.39.35H54.06a.49.49,0,0,0,.35-.36l8.49-27.34c0-.17.11-.26.26-.26s.22.12.26.26l8.3,27.46a.35.35,0,0,0,.34.24H96.67"/><path class="cls-1" d="M75.42,7.86c-4.43,0-10.64,2.28-14.21,4.92s-8.74,8.67-8.74,17a26.57,26.57,0,0,0,5,14.76c2.58,3.2,9.1,9.93,9.1,9.93a.88.88,0,0,1,.24.59.91.91,0,0,1-.91.9H6.51V82.25H77.94a22.48,22.48,0,0,0,23-22.95,23,23,0,0,0-6-16.06c-1.6-1.93-8-8.61-9.27-10a.72.72,0,0,1-.27-.55.73.73,0,0,1,.49-.72h34.4V82.25h26.46V32.1h32.12V7.86Z"/><path class="cls-1" d="M327.55,55.91c-4.43,0-4.73-1.79-4.73-2,0-.46.55-.74.55-.74a42.4,42.4,0,0,0,5-3.44c7.2-5.6,8.06-13.29,8.06-17.41a22.24,22.24,0,0,0-8-17.83,29.18,29.18,0,0,0-16.74-6.6h-52s0,73.95,0,74a.44.44,0,0,0,.45.43h28.93V61.51c0-.37.55,0,.55,0l15.08,15.14c5.36,5.41,14.21,5.6,14.21,5.6h44.49V55.91Zm-21.4-17.6H289.92a.63.63,0,0,1-.44-.61V29.52a.63.63,0,0,1,.43-.62h14.89c1.72,0,5.24.86,5.24,4.86a4.56,4.56,0,0,1-3.87,4.55"/><path class="cls-1" d="M232.22,8.51a.9.9,0,0,0-.83-.66h-40a.91.91,0,0,0-.84.65s-22.06,72.94-22.06,73.07a.65.65,0,0,0,.66.66h26.41a.7.7,0,0,0,.43-.5l3.07-9.84a.69.69,0,0,1,.6-.42h24.36a.72.72,0,0,1,.61.42l3.14,9.84a.67.67,0,0,0,.42.5h26a.64.64,0,0,0,.66-.64c0-.12-22.65-73.09-22.65-73.09M217.58,51.25H206.69c-.4,0-.66-.43-.66-.84,0-.16,5.79-18.82,5.79-18.82.21-.7.27-.72.31-.72h0s.1,0,.31.72c0,0,5.8,18.66,5.8,18.82,0,.41-.27.84-.66.84"/></svg>